<?xml version="1.0" encoding="utf-8"?>
<!-- Generator: Adobe Illustrator 16.0.0, SVG Export Plug-In . SVG Version: 6.00 Build 0)  -->
<!DOCTYPE svg PUBLIC "-//W3C//DTD SVG 1.1//EN" "http://www.w3.org/Graphics/SVG/1.1/DTD/svg11.dtd">
<svg version="1.1" id="Layer_2" xmlns="http://www.w3.org/2000/svg" xmlns:xlink="http://www.w3.org/1999/xlink" x="0px" y="0px"
	 width="1600px" height="900px" viewBox="0 0 1600 900" enable-background="new 0 0 1600 900" xml:space="preserve">
<circle fill="#FF2626" stroke="#FFFFFF" stroke-width="2.4482" stroke-miterlimit="10" cx="805.088" cy="446.925" r="135.992"/>
<g>
	<g>
		<path fill="none" stroke="#FFFFFF" stroke-width="5.8129" stroke-miterlimit="10" d="M839.964,463.119l8.306-19.973
			c7.357-17.698-1.102-38.199-18.801-45.558l0,0c-17.698-7.359-38.2,1.101-45.558,18.799l-8.305,19.974
			c-1.656,3.983-6.733,19.324-15.056,15.863l0,0c-4.882-2.029-10.538,0.306-12.568,5.188l0,0c-2.03,4.882,0.304,10.537,5.186,12.567
			l78.783,32.756c4.883,2.031,10.538-0.304,12.567-5.185l0,0c2.03-4.883-0.304-10.539-5.186-12.569l0,0
			C831.012,481.522,838.308,467.103,839.964,463.119z"/>
		<path fill="none" stroke="#FFFFFF" stroke-width="5.8129" stroke-miterlimit="10" d="M782.285,482.084
			c-1.207,1.141-2.2,2.544-2.878,4.175c-2.583,6.214,0.359,13.345,6.572,15.929c6.214,2.583,13.345-0.36,15.928-6.572
			c0.679-1.632,0.973-3.326,0.931-4.985L782.285,482.084z"/>
		<path fill="none" stroke="#FFFFFF" stroke-width="5.8129" stroke-miterlimit="10" d="M829.469,397.588L829.469,397.588
			c2.063,0.857,3.997,1.895,5.798,3.083c1.77-0.895,3.244-2.397,4.066-4.372c1.825-4.392-0.255-9.433-4.646-11.258
			c-4.393-1.827-9.433,0.254-11.258,4.646c-0.822,1.975-0.849,4.079-0.234,5.966C825.307,396.091,827.407,396.731,829.469,397.588z"
			/>
	</g>
	<g>
		<path fill="none" stroke="#FFFFFF" stroke-width="3.2046" stroke-linecap="round" stroke-miterlimit="10" d="M796.259,423.581
			c3.592-8.641,10.876-14.65,19.267-16.961"/>
		
			<line fill="none" stroke="#FFFFFF" stroke-width="3.2046" stroke-linecap="round" stroke-miterlimit="10" x1="787.954" y1="443.554" x2="793.952" y2="429.129"/>
		<path fill="none" stroke="#FFFFFF" stroke-width="3.2046" stroke-linecap="round" stroke-miterlimit="10" d="M781.919,455.984
			c1.5-2.162,2.712-4.532,3.693-6.719"/>
	</g>
	<circle fill="#FF2626" stroke="#FFFFFF" stroke-width="2.4482" stroke-miterlimit="10" cx="798.323" cy="403.91" r="16.884"/>
	
		<text transform="matrix(0.9955 -0.0952 0.0952 0.9955 790.8179 414.7876)" fill="#FFFFFF" font-family="'Comfortaa'" font-size="28.049">4</text>
</g>
</svg>
